<?xml version="1.0" encoding="UTF-8"?>
<svg xmlns="http://www.w3.org/2000/svg" viewBox="0 40 720 720">
  <path d="M10 710 H473 Q599 710 621 586 L688 203 Q710 80 585 80 H249 Q121 80 99 206" fill="#333333" stroke="none"/>
  <path d="M37.5 687 H473 Q579.5 687 598.2 582.1 L665.7 199.2 Q682.6 103 585 103 H249 Q140.4 103 121.15 209.8" fill="#9fc109" stroke="none"/>
  <path d="M64.8 664 H473 Q560.3 664 575.5 578.1 L643 195.2 Q655.2 126 585 126 H249 Q159.7 126 144.2 213.8" fill="#7fa909" stroke="none"/>
  <path d="m 302.13485,212.59386 -27.1782,362.65293 h -66.05294 l 8.30529,-65.18344 h -23.14151 l -15.35502,65.18344 h -66.8192 L 208.80254,212.59386 Z M 226.73518,445.77589 Q 232.72109,384.1764 243.81539,293.68117 215.6326,397.61629 204.66646,445.77589 Z M 350.10366,212.59386 h 48.27535 q 46.74277,0 62.03232,6.27194 15.44271,6.27195 21.49059,20.60783 6.04783,14.33588 5.06502,32.03173 -0.94322,17.47185 -10.0513,68.99141 l -22.4533,127.00695 q -8.63284,48.8316 -14.78162,65.40742 -5.95589,16.35189 -15.43511,25.75982 -9.43964,9.1839 -21.60692,12.99188 -12.12773,3.58395 -35.26924,3.58395 h -81.37843 z m 53.55115,62.04747 -42.17419,238.55799 q 13.9462,0 18.59016,-8.0639 4.68358,-8.28794 11.09882,-44.57566 l 24.90851,-140.89481 q 4.35602,-24.63979 4.51081,-31.58373 0.15476,-6.94394 -3.12212,-10.07991 -3.2374,-3.35998 -13.81199,-3.35998 z" fill="#ffffff" />
  <g transform="matrix(3.0750436,0.53217081,-0.57172416,2.8767416,529.36893,335.91923)" >
    <rect x="-8" y="-28" width="18" height="88" rx="4" fill="#fbbf24" stroke="#0f172a" stroke-width="3" />
    <rect x="-8" y="-39" width="18" height="11" rx="2" fill="#fda4af" stroke="#0f172a" stroke-width="3" />
    <path d="M -8,60 1,78 10,60 Z" fill="#fde68a" stroke="#0f172a" stroke-width="3" />
    <path d="m -2,73 3,5 3,-5 z" fill="#111827" />
  </g>
</svg>
